<svg width="30" height="45" viewBox="0 0 30 45" fill="none" xmlns="http://www.w3.org/2000/svg">
<path d="M2.66663 10.082C2.66663 5.66375 6.24835 2.08203 10.6666 2.08203H19.4285C23.8468 2.08203 27.4285 5.66375 27.4285 10.082V37.4098C27.4285 39.6189 25.6377 41.4098 23.4285 41.4098H6.66663C4.45749 41.4098 2.66663 39.6189 2.66663 37.4098V10.082Z" fill="#01595C"/>
<path d="M2.66663 10.1426C2.66663 5.72429 6.24835 2.14258 10.6666 2.14258H19.4285C23.8468 2.14258 27.4285 5.7243 27.4285 10.1426V38.9997C27.4285 41.2089 25.6377 42.9997 23.4285 42.9997H6.66663C4.45749 42.9997 2.66663 41.2089 2.66663 38.9997V10.1426Z" fill="#01595C" stroke="white" stroke-width="4"/>
<path d="M11.4351 34.6787C11.4351 33.0219 12.7782 31.6787 14.4351 31.6787H15.6601C17.3169 31.6787 18.6601 33.0219 18.6601 34.6787V41.8169H11.4351V34.6787Z" fill="#01595C" stroke="white" stroke-width="2"/>
<rect x="6.5509" y="22.96" width="7.28291" height="2.42764" fill="white"/>
<rect x="6.5509" y="18.5898" width="7.28291" height="2.42764" fill="white"/>
<rect x="6.5509" y="14.2197" width="7.28291" height="2.42764" fill="white"/>
<rect x="6.5509" y="9.85059" width="7.28291" height="2.42764" fill="white"/>
<rect x="16.7469" y="22.96" width="7.28291" height="2.42764" fill="white"/>
<rect x="16.7469" y="18.5898" width="7.28291" height="2.42764" fill="white"/>
<rect x="16.7469" y="14.2197" width="7.28291" height="2.42764" fill="white"/>
<rect x="16.7469" y="9.85059" width="7.28291" height="2.42764" fill="white"/>
</svg>
