<svg width="27" height="38" viewBox="0 0 27 38" fill="none" xmlns="http://www.w3.org/2000/svg">
<circle cx="13.676" cy="8.09872" r="5.0704" fill="#01595C"/>
<path d="M13.6739 2.47363C10.4438 2.47363 7.80286 5.10763 7.80286 8.33766C7.80286 11.5678 10.4438 14.2087 13.6739 14.2087C16.9041 14.2087 19.545 11.5678 19.545 8.33766C19.545 5.10752 16.9041 2.47363 13.6739 2.47363ZM13.6739 4.43066C15.8467 4.43066 17.588 6.16496 17.588 8.33766C17.588 10.5105 15.8467 12.2517 13.6739 12.2517C11.5011 12.2517 9.75988 10.5105 9.75988 8.33766C9.75988 6.16485 11.5011 4.43066 13.6739 4.43066Z" fill="#01595C" stroke="#01595C"/>
<path d="M12.6986 1V3.44829H14.6556V1H12.6986Z" fill="#01595C" stroke="#01595C"/>
<path d="M18.5272 10.9873L16.6567 11.5651L24.4778 36.9995L26.3483 36.4217L18.5272 10.9873Z" fill="#01595C" stroke="#01595C"/>
<path d="M8.82809 10.9873L1 36.4217L2.87049 36.9995L10.6986 11.5651L8.82809 10.9873Z" fill="#01595C" stroke="#01595C"/>
<path d="M2.74694 17.0889L1.12231 18.1724C1.12231 18.1724 5.35825 24.4841 13.6735 24.4841C21.9887 24.4841 26.2313 18.1724 26.2313 18.1724L24.5992 17.0889C24.5992 17.0889 21.0101 22.5267 13.6729 22.5267C6.33575 22.5267 2.74694 17.0889 2.74694 17.0889Z" fill="#01595C" stroke="#01595C"/>
<path d="M13.6759 7.36133C13.1414 7.36133 12.6976 7.80506 12.6976 8.33962C12.6976 8.87417 13.1414 9.3179 13.6759 9.3179C14.2105 9.3179 14.6542 8.87417 14.6542 8.33962C14.6542 7.80506 14.2105 7.36133 13.6759 7.36133Z" fill="white" stroke="white"/>
</svg>
