<svg width="37" height="37" viewBox="0 0 37 37" fill="none" xmlns="http://www.w3.org/2000/svg">
<g clip-path="url(#clip0_184_2667)">
<path d="M18.5 21.583C17.2734 21.583 16.097 22.0703 15.2296 22.9376C14.3623 23.805 13.875 24.9814 13.875 26.208V37.0397H23.125V26.208C23.125 24.9814 22.6377 23.805 21.7704 22.9376C20.903 22.0703 19.7266 21.583 18.5 21.583Z" fill="#01595C"/>
<path d="M20.5627 1.28428C19.9966 0.774664 19.2618 0.492676 18.5 0.492676C17.7382 0.492676 17.0034 0.774664 16.4372 1.28428L0 16.0781V32.1115C0 33.4199 0.51976 34.6747 1.44494 35.5998C2.37012 36.525 3.62493 37.0448 4.93333 37.0448H10.7917V26.2084C10.7917 24.164 11.6038 22.2034 13.0494 20.7578C14.495 19.3122 16.4556 18.5001 18.5 18.5001C20.5444 18.5001 22.505 19.3122 23.9506 20.7578C25.3962 22.2034 26.2083 24.164 26.2083 26.2084V37.0402H32.0667C33.3751 37.0402 34.6299 36.5204 35.5551 35.5952C36.4802 34.67 37 33.4152 37 32.1068V16.0735L20.5627 1.28428Z" fill="#01595C"/>
</g>
<defs>
<clipPath id="clip0_184_2667">
<rect width="37" height="37" fill="white"/>
</clipPath>
</defs>
</svg>
