<svg width="36" height="36" viewBox="0 0 36 36" fill="none" xmlns="http://www.w3.org/2000/svg">
<g clip-path="url(#clip0_184_2668)">
<path d="M28.4998 25.4985C26.9196 25.4979 25.3675 25.0809 23.9998 24.2895C22.6321 25.0809 21.0799 25.4979 19.4998 25.4985H16.4998C14.9174 25.4965 13.3641 25.0729 11.9998 24.2715C10.6354 25.0731 9.08214 25.4966 7.49976 25.4985H5.99976C4.41819 25.4979 2.86518 25.0771 1.49976 24.279V31.4985C1.49976 32.6919 1.97386 33.8365 2.81778 34.6804C3.66169 35.5243 4.80628 35.9984 5.99976 35.9984H29.9998C31.1932 35.9984 32.3378 35.5243 33.1817 34.6804C34.0257 33.8365 34.4998 32.6919 34.4998 31.4985V24.2805C33.1339 25.0775 31.5811 25.4978 29.9998 25.4985H28.4998Z" fill="#01595C"/>
<path d="M25.5 0V9H22.5V0H13.5V9H10.5V0H3.3L0.036 14.6745L0 16.5C0 18.0913 0.632141 19.6174 1.75736 20.7426C2.88258 21.8679 4.4087 22.5 6 22.5H7.5C8.35484 22.4972 9.19909 22.3107 9.97551 21.953C10.7519 21.5954 11.4424 21.0749 12 20.427C12.5576 21.0749 13.2481 21.5954 14.0245 21.953C14.8009 22.3107 15.6452 22.4972 16.5 22.5H19.5C20.3517 22.5005 21.1937 22.3191 21.9698 21.9681C22.7458 21.6171 23.4379 21.1044 24 20.4645C24.5621 21.1044 25.2542 21.6171 26.0302 21.9681C26.8063 22.3191 27.6483 22.5005 28.5 22.5H30C31.5913 22.5 33.1174 21.8679 34.2426 20.7426C35.3679 19.6174 36 18.0913 36 16.5V15L32.7 0H25.5Z" fill="#01595C"/>
</g>
<defs>
<clipPath id="clip0_184_2668">
<rect width="36" height="36" fill="white"/>
</clipPath>
</defs>
</svg>
