<svg width="26" height="26" viewBox="0 0 26 26" fill="none" xmlns="http://www.w3.org/2000/svg">
<path d="M22.7501 26H17.3335V23.8334H22.7501C23.0374 23.8334 23.3129 23.7193 23.5161 23.5161C23.7193 23.3129 23.8334 23.0374 23.8334 22.7501V17.3335H26V22.7501C26 23.612 25.6576 24.4387 25.0481 25.0481C24.4387 25.6576 23.612 26 22.7501 26Z" fill="white"/>
<path d="M2.16664 8.66656H0V3.24996C0 2.38802 0.342405 1.56138 0.951891 0.951891C1.56138 0.342405 2.38802 0 3.24996 0L8.66656 0V2.16664H3.24996C2.96264 2.16664 2.6871 2.28077 2.48394 2.48394C2.28077 2.6871 2.16664 2.96264 2.16664 3.24996V8.66656Z" fill="white"/>
<path d="M8.66656 26H3.24996C2.38802 26 1.56138 25.6576 0.951891 25.0481C0.342405 24.4387 0 23.612 0 22.7501L0 17.3335H2.16664V22.7501C2.16664 23.0374 2.28077 23.3129 2.48394 23.5161C2.6871 23.7193 2.96264 23.8334 3.24996 23.8334H8.66656V26Z" fill="white"/>
<path d="M26 8.66656H23.8334V3.24996C23.8334 2.96264 23.7193 2.6871 23.5161 2.48394C23.3129 2.28077 23.0374 2.16664 22.7501 2.16664H17.3335V0H22.7501C23.612 0 24.4387 0.342405 25.0481 0.951891C25.6576 1.56138 26 2.38802 26 3.24996V8.66656Z" fill="white"/>
<g clip-path="url(#clip0_405_1301)">
<path d="M15.6953 13.334H10.3047C9.42854 13.335 8.5886 13.6836 7.96908 14.3031C7.34957 14.9226 7.00106 15.7625 7 16.6387V20.0007H19V16.6387C18.9989 15.7625 18.6504 14.9226 18.0309 14.3031C17.4114 13.6836 16.5715 13.335 15.6953 13.334Z" fill="white"/>
<path d="M13 12C15.2091 12 17 10.2091 17 8C17 5.79086 15.2091 4 13 4C10.7909 4 9 5.79086 9 8C9 10.2091 10.7909 12 13 12Z" fill="white"/>
</g>
<defs>
<clipPath id="clip0_405_1301">
<rect width="16" height="16" fill="white" transform="translate(5 4)"/>
</clipPath>
</defs>
</svg>
