<svg width="34" height="34" viewBox="0 0 34 34" fill="none" xmlns="http://www.w3.org/2000/svg">
<circle cx="17" cy="17" r="17" fill="white"/>
<path d="M24.3641 13.6552L24.4116 13.5966L24.3819 13.5272C24.2678 13.2611 24.2276 12.951 24.2276 12.631C24.2276 11.2631 25.3603 10.1284 26.7274 10.125H26.7337C28.1036 10.125 29.2397 11.2614 29.2397 12.6316C29.2397 14.0016 28.1036 15.1376 26.7337 15.1376C26.4807 15.1376 26.2602 15.1359 26.0813 15.0643L25.9957 15.03L25.9377 15.1017L21.4154 20.6926L21.3785 20.7383L21.3901 20.7959C21.4309 20.9992 21.4699 21.2361 21.4699 21.4701C21.4699 22.84 20.3339 23.9761 18.9639 23.9761C17.594 23.9761 16.4579 22.84 16.4579 21.4701C16.4579 21.1523 16.4974 20.8826 16.6121 20.6149L16.6431 20.5425L16.5912 20.4833L13.9602 17.4823L13.9004 17.4141L13.817 17.4498C13.5492 17.5645 13.2796 17.604 12.9618 17.604C12.6851 17.604 12.4109 17.5645 12.1792 17.4872L12.1006 17.4609L12.0458 17.5232L9.04487 20.9353L8.99741 20.9892L9.02016 21.0574C9.09776 21.29 9.13704 21.5644 9.13704 21.799C9.13704 23.1689 8.00097 24.305 6.63102 24.305C5.26107 24.305 4.125 23.1689 4.125 21.799C4.125 20.429 5.26107 19.293 6.63102 19.293C6.89837 19.293 7.16884 19.3692 7.46011 19.4525L7.53619 19.4742L7.5884 19.4148L10.5483 16.0436L10.5957 15.9897L10.5729 15.9216C10.4956 15.6899 10.4561 15.416 10.4561 15.139C10.4561 13.7691 11.5921 12.633 12.9621 12.633C14.332 12.633 15.4681 13.7691 15.4681 15.139C15.4681 15.3715 15.4295 15.6048 15.3512 15.8393L15.3283 15.9081L15.3766 15.9621L18.1309 19.0454L18.1857 19.1067L18.2637 19.0807C18.4982 19.0024 18.7315 18.9638 18.964 18.9638C19.2419 18.9638 19.5521 19.0036 19.8192 19.118L19.906 19.1552L19.9655 19.0818L24.3641 13.6552Z" fill="#01595C" stroke="white" stroke-width="0.25"/>
</svg>
