<svg width="26" height="26" viewBox="0 0 26 26" fill="none" xmlns="http://www.w3.org/2000/svg">
<g clip-path="url(#clip0_12_1683)">
<path d="M17.3799 15.1673H8.62008C7.19638 15.169 5.83147 15.7354 4.82476 16.7421C3.81805 17.7488 3.25172 19.1137 3.25 20.5374V26.0007H22.75V20.5374C22.7483 19.1137 22.182 17.7488 21.1752 16.7421C20.1685 15.7354 18.8036 15.169 17.3799 15.1673Z" fill="white"/>
<path d="M13 13C16.5899 13 19.5 10.0899 19.5 6.5C19.5 2.91015 16.5899 0 13 0C9.41015 0 6.5 2.91015 6.5 6.5C6.5 10.0899 9.41015 13 13 13Z" fill="white"/>
</g>
<defs>
<clipPath id="clip0_12_1683">
<rect width="26" height="26" fill="white"/>
</clipPath>
</defs>
</svg>
