<svg width="38" height="38" viewBox="0 0 38 38" fill="none" xmlns="http://www.w3.org/2000/svg">
<g clip-path="url(#clip0_184_2807)">
<path d="M10.2917 27.709H0V33.2506C0 34.5104 0.500445 35.7186 1.39124 36.6094C2.28204 37.5002 3.49022 38.0006 4.75 38.0006H10.2917V27.709Z" fill="white"/>
<path d="M37.9997 27.709H27.708V38.0006H33.2497C34.5094 38.0006 35.7176 37.5002 36.6084 36.6094C37.4992 35.7186 37.9997 34.5104 37.9997 33.2506V27.709Z" fill="white"/>
<path d="M10.2917 13.8535H0V24.1452H10.2917V13.8535Z" fill="white"/>
<path d="M37.9997 13.8535H27.708V24.1452H37.9997V13.8535Z" fill="white"/>
<path d="M10.2917 0H4.75C3.49022 0 2.28204 0.500445 1.39124 1.39124C0.500445 2.28204 0 3.49022 0 4.75L0 10.2917H10.2917V0Z" fill="white"/>
<path d="M24.1461 27.709H13.8545V38.0006H24.1461V27.709Z" fill="white"/>
<path d="M24.1461 13.8535H13.8545V24.1452H24.1461V13.8535Z" fill="white"/>
<path d="M24.1461 0H13.8545V10.2917H24.1461V0Z" fill="white"/>
<path d="M33.2497 0H27.708V10.2917H37.9997V4.75C37.9997 3.49022 37.4992 2.28204 36.6084 1.39124C35.7176 0.500445 34.5094 0 33.2497 0V0Z" fill="white"/>
</g>
<defs>
<clipPath id="clip0_184_2807">
<rect width="38" height="38" fill="white"/>
</clipPath>
</defs>
</svg>
