<svg width="38" height="38" viewBox="0 0 38 38" fill="none" xmlns="http://www.w3.org/2000/svg">
<circle cx="19" cy="19" r="19" fill="white"/>
<path d="M27.0634 14.1173C27.0634 12.5804 28.3358 11.3056 29.8719 11.3018H29.8789C31.4181 11.3018 32.6945 12.5785 32.6945 14.118C32.6945 15.6572 31.4182 16.9335 29.8789 16.9335C29.597 16.9335 29.3475 16.9318 29.1443 16.8505L29.0587 16.8162L29.0007 16.8879L23.9465 23.1366L23.9095 23.1823L23.9211 23.2398C23.9668 23.4673 24.0106 23.7332 24.0106 23.9963C24.0106 25.5355 22.7343 26.8118 21.1951 26.8118C19.6558 26.8118 18.3795 25.5355 18.3795 23.9963C18.3795 23.6398 18.4239 23.3363 18.5531 23.0347L18.5841 22.9623L18.5322 22.903L15.5916 19.5491L15.5318 19.4808L15.4484 19.5166C15.1468 19.6457 14.8433 19.6901 14.4868 19.6901C14.1763 19.6901 13.8683 19.6457 13.6075 19.5587L13.5289 19.5325L13.4741 19.5947L10.1201 23.4083L10.0727 23.4622L10.0954 23.5304C10.1827 23.792 10.2268 24.1002 10.2268 24.3639C10.2268 25.9031 8.9505 27.1794 7.41125 27.1794C5.87201 27.1794 4.5957 25.9031 4.5957 24.3639C4.5957 22.8246 5.87201 21.5483 7.41125 21.5483C7.71247 21.5483 8.01679 21.6342 8.34193 21.7272L8.41801 21.7489L8.47022 21.6894L11.7783 17.9217L11.8257 17.8677L11.803 17.7996C11.716 17.539 11.6716 17.2312 11.6716 16.9204C11.6716 15.3811 12.9479 14.1048 14.4871 14.1048C16.0264 14.1048 17.3027 15.3811 17.3027 16.9204C17.3027 17.1819 17.2592 17.4442 17.1713 17.7077L17.1484 17.7765L17.1967 17.8305L20.275 21.2765L20.3298 21.3378L20.4078 21.3118C20.6713 21.2238 20.9336 21.1804 21.1951 21.1804C21.5069 21.1804 21.8558 21.2251 22.1567 21.3539L22.2436 21.3911L22.3031 21.3177L27.2191 15.2527L27.2666 15.1941L27.2369 15.1247C27.1083 14.8248 27.0634 14.476 27.0634 14.1173Z" fill="#F2B600" stroke="white" stroke-width="0.25"/>
</svg>
