<svg width="402" height="248" viewBox="0 0 402 248" fill="none" xmlns="http://www.w3.org/2000/svg">
<path d="M136.148 163.718V179.162C136.148 196.936 121.698 211.386 103.924 211.386C86.1499 211.386 71.7001 196.936 71.7001 179.162V148.208H84.7887V179.162C84.7887 189.712 93.3748 198.298 103.924 198.298C114.474 198.298 123.06 189.712 123.06 179.162V163.718H136.148Z" fill="#F2F5F5"/>
<path d="M64.4615 181.715V212.669H51.373V181.715C51.373 171.152 42.7869 162.566 32.2375 162.566C21.675 162.566 13.0889 171.152 13.0889 181.715V212.669H0.000366211V148.208H13.0889V155.799C18.4421 151.82 25.078 149.477 32.2375 149.477C50.0117 149.477 64.4615 163.94 64.4615 181.715Z" fill="#F2F5F5"/>
<path d="M176.776 199.333C165.651 199.333 156.606 190.289 156.606 179.164C156.606 168.039 165.651 158.981 176.776 158.981C183.791 158.981 189.982 162.581 193.595 168.039H208.123C203.542 155.146 191.212 145.893 176.776 145.893C158.439 145.893 143.518 160.814 143.518 179.164C143.518 197.501 158.439 212.422 176.776 212.422C191.212 212.422 203.529 203.168 208.123 190.289H193.581C189.982 195.734 183.791 199.333 176.776 199.333Z" fill="#F2F5F5"/>
<path d="M368.209 212.422C349.872 212.422 334.951 197.501 334.951 179.164C334.951 160.827 349.872 145.893 368.209 145.893C386.546 145.893 401.467 160.814 401.467 179.164C401.467 197.514 386.56 212.422 368.209 212.422ZM368.209 158.981C357.084 158.981 348.04 168.039 348.04 179.164C348.04 190.289 357.097 199.333 368.209 199.333C379.322 199.333 388.379 190.276 388.379 179.164C388.392 168.039 379.335 158.981 368.209 158.981Z" fill="#F2F5F5"/>
<path d="M265.792 197.003V210.092H238.594C226.304 210.092 216.304 200.092 216.304 187.802V145.631H229.393V187.802C229.393 192.867 233.516 197.003 238.594 197.003H265.792Z" fill="#F2F5F5"/>
<path d="M148.02 148.208H123.152V157.239H148.02V148.208Z" fill="#FFC000"/>
<path d="M296.496 145.737C278.905 145.737 264.587 160.043 264.587 177.647C264.587 196.822 280.188 212.423 299.363 212.423C308.76 212.423 317.569 208.732 324.166 202.031L314.833 192.856C310.724 197.031 305.226 199.335 299.363 199.335C289.075 199.335 280.437 192.136 278.238 182.516H328.393V176.914C328.001 159.65 313.839 145.737 296.496 145.737ZM279.573 169.427C282.623 163.158 289.062 158.825 296.496 158.825C303.931 158.825 310.37 163.158 313.42 169.427H279.573Z" fill="#F2F5F5"/>
<path d="M328.406 177.646H328.392V177.097C328.405 177.28 328.406 177.463 328.406 177.646Z" fill="#F2F5F5"/>
<path d="M177.493 227.434C182.794 227.434 187.519 231.308 187.519 237.603C187.519 243.873 182.794 247.747 177.493 247.747C172.218 247.747 167.493 243.873 167.493 237.603C167.493 231.321 172.218 227.434 177.493 227.434ZM177.493 244.069C180.516 244.069 183.592 241.975 183.592 237.577C183.592 233.179 180.516 231.085 177.493 231.085C174.496 231.085 171.42 233.179 171.42 237.577C171.42 241.975 174.509 244.069 177.493 244.069Z" fill="#F2F5F5"/>
<path d="M196.328 247.341V227.852H203.304C208.854 227.852 212.924 231.451 212.924 237.603C212.924 243.754 208.828 247.328 203.278 247.328H196.328V247.341ZM203.147 243.82C206.341 243.82 208.998 241.844 208.998 237.603C208.998 233.362 206.354 231.36 203.173 231.36H200.124V243.807H203.147V243.82Z" fill="#F2F5F5"/>
<path d="M231.365 233.545C231.169 232.472 230.292 230.797 227.818 230.797C225.973 230.797 224.769 231.975 224.769 233.27C224.769 234.344 225.449 235.194 226.889 235.469L229.611 235.993C233.158 236.673 235.056 238.99 235.056 241.739C235.056 244.736 232.556 247.759 228.015 247.759C222.845 247.759 220.567 244.435 220.266 241.66L223.787 240.731C223.957 242.655 225.292 244.383 228.041 244.383C230.07 244.383 231.208 243.362 231.208 241.987C231.208 240.862 230.358 239.985 228.839 239.684L226.117 239.134C223.015 238.506 220.999 236.49 220.999 233.558C220.999 230.09 224.101 227.459 227.792 227.459C232.517 227.459 234.336 230.312 234.768 232.511L231.365 233.545Z" fill="#F2F5F5"/>
<path d="M172.567 81.1148C169.973 77.5708 168.109 73.5867 167.024 69.2718C165.941 64.95 165.706 60.5419 166.33 56.1657L172.963 57.1063C172.464 60.6174 172.652 64.1661 173.526 67.6415C174.398 71.1121 175.896 74.3165 177.973 77.1569L172.567 81.1148Z" fill="#00B1C4"/>
<path d="M203.878 94.9308C194.995 95.9162 186.2 93.4091 179.115 87.8669L183.242 82.5882C188.941 87.0456 196.005 89.0632 203.137 88.2681L203.878 94.9308Z" fill="#42C34A"/>
<path d="M213.61 92.39C213.406 92.4767 213.202 92.5635 212.997 92.6455L210.492 86.431C217.145 83.7456 222.401 78.6471 225.311 72.0493L231.439 74.7505C227.91 82.7487 221.595 88.9921 213.61 92.39Z" fill="#91C469"/>
<path d="M175.06 49.8352L168.933 47.1224C172.565 38.9181 179.145 32.5733 187.418 29.2601L189.908 35.4806C183.242 38.1491 177.982 43.2381 175.06 49.8352Z" fill="#FF0027"/>
<path d="M217.074 39.2975C211.405 34.872 204.366 32.8606 197.251 33.6314L196.529 26.9721C205.382 26.0103 214.143 28.5153 221.196 34.0209L217.074 39.2975Z" fill="#FF6B00"/>
<path d="M234.031 65.7054L227.397 64.7648C227.891 61.2787 227.699 57.7482 226.831 54.2755C225.957 50.8001 224.455 47.5863 222.357 44.7215L227.763 40.7636C230.377 44.3273 232.248 48.3303 233.329 52.6473C234.408 56.9595 234.644 61.3562 234.031 65.7054Z" fill="#FFCA26"/>
<path d="M168.715 95.143C163.846 90.6627 160.053 85.2765 157.442 79.1409C154.829 73.0005 153.578 66.5213 153.732 59.8812L160.428 60.0337C160.303 65.7151 161.368 71.2594 163.606 76.5178C165.842 81.7715 169.085 86.3782 173.252 90.2105L168.715 95.143Z" fill="#00B1C4"/>
<path d="M214.097 105.276C201.355 109.299 187.479 107.604 176.026 100.628L179.51 94.9054C189.314 100.875 201.183 102.327 212.079 98.8883L214.097 105.276Z" fill="#42C34A"/>
<path d="M222.501 101.688L219.293 95.8067C229.295 90.3462 236.466 80.7984 238.977 69.6045L245.514 71.0679C242.582 84.1431 234.2 95.3043 222.501 101.688Z" fill="#91C469"/>
<path d="M161.393 52.2628L154.855 50.7947C157.788 37.7358 166.188 26.5895 177.898 20.2064L181.102 26.0898C171.086 31.5449 163.901 41.0873 161.393 52.2628Z" fill="#FF0027"/>
<path d="M220.812 26.9849C211.02 21.0549 199.178 19.6144 188.322 23.03L186.313 16.6381C199.006 12.6426 212.843 14.3257 224.286 21.2506L220.812 26.9849Z" fill="#FF6B00"/>
<path d="M246.624 61.9937L239.927 61.8365C240.057 56.1809 238.991 50.6481 236.755 45.3944C234.515 40.1312 231.259 35.5191 227.075 31.6881L231.604 26.7481C236.498 31.2345 240.304 36.6262 242.919 42.7713C245.532 48.9117 246.777 55.3767 246.624 61.9937Z" fill="#FFCA26"/>
<path d="M185.513 65.1733L179.077 67.027C178.488 64.9706 178.196 62.8378 178.224 60.6923C178.25 58.5028 178.598 56.3608 179.253 54.3183L185.631 56.37C185.177 57.7782 184.938 59.2574 184.919 60.7778C184.904 62.2683 185.102 63.7466 185.513 65.1733Z" fill="#00B1C4"/>
<path d="M194.947 82.2781C190.713 81.2516 186.918 78.9914 183.97 75.7489L188.929 71.2417C190.973 73.4913 193.599 75.0563 196.527 75.7648L194.947 82.2781Z" fill="#42C34A"/>
<path d="M208.8 81.1542C207.563 81.6808 206.27 82.0909 204.938 82.3832L203.509 75.8399C206.425 75.2039 209.077 73.7113 211.181 71.5223L216.013 76.1642C213.943 78.316 211.494 80.0081 208.8 81.1542Z" fill="#91C469"/>
<path d="M189.211 50.3713L184.379 45.7294C187.398 42.5854 191.234 40.4381 195.465 39.5112L196.891 46.0612C193.961 46.7033 191.307 48.1912 189.211 50.3713Z" fill="#FF0027"/>
<path d="M211.394 50.6365C209.374 48.4161 206.774 46.8734 203.872 46.1596L205.465 39.6518C209.661 40.6829 213.424 42.918 216.344 46.1219L211.394 50.6365Z" fill="#FF6B00"/>
<path d="M221.122 67.538L214.73 65.5316C215.174 64.1159 215.408 62.6387 215.428 61.1461C215.448 59.6258 215.246 58.138 214.827 56.7201L221.251 54.8264C221.859 56.8863 222.154 59.0401 222.126 61.2249C222.1 63.3751 221.76 65.4969 221.122 67.538Z" fill="#FFCA26"/>
</svg>
