<svg width="39" height="39" viewBox="0 0 39 39" fill="none" xmlns="http://www.w3.org/2000/svg">
<circle cx="19.5" cy="19.5" r="19.5" fill="#F2B600"/>
<path d="M31.338 24.0166L29.9385 18.9685L28.539 13.9203C27.9766 11.8893 26.7507 10.1049 25.0566 8.85143C23.3625 7.59791 21.2977 6.94734 19.191 7.00333C17.0843 7.05933 15.057 7.81868 13.4319 9.16042C11.8068 10.5022 10.6774 12.3491 10.2237 14.4071L8.05944 24.1436C7.9783 24.5089 7.98026 24.8878 8.06515 25.2523C8.15005 25.6168 8.31572 25.9576 8.54994 26.2494C8.78416 26.5413 9.08095 26.7769 9.41839 26.9387C9.75583 27.1006 10.1253 27.1845 10.4996 27.1845H14.641C14.9592 28.2846 15.6261 29.2516 16.5415 29.9397C17.4568 30.6279 18.571 31 19.7162 31C20.8614 31 21.9756 30.6279 22.8909 29.9397C23.8063 29.2516 24.4732 28.2846 24.7914 27.1845H28.9309C29.3161 27.1845 29.6962 27.0955 30.0413 26.9243C30.3865 26.7531 30.6874 26.5045 30.9206 26.1978C31.1537 25.8911 31.3128 25.5346 31.3854 25.1562C31.458 24.7779 31.4411 24.3878 31.338 24.0166ZM11.1223 24.1856L13.1516 15.0519C13.4624 13.6485 14.2337 12.3893 15.3428 11.475C16.4519 10.5606 17.835 10.0435 19.272 10.006C20.7089 9.96855 22.1171 10.4128 23.2723 11.2682C24.4276 12.1235 25.2635 13.3407 25.6471 14.726L28.2741 24.1856H11.1223Z" fill="white"/>
</svg>
