<svg width="94" height="94" viewBox="0 0 94 94" fill="none" xmlns="http://www.w3.org/2000/svg">
<circle cx="47" cy="47" r="47" fill="#B81D13"/>
<circle cx="47" cy="46.9997" r="43.9011" fill="#E52334"/>
<path d="M39.7692 24.0314C39.7692 21.3882 40.6494 19.626 43.29 19.626H51.2117C52.972 19.626 54.7324 21.3882 54.7324 24.0314L50.3315 54.8696C50.3315 56.6318 48.5711 58.394 46.8107 58.394C45.0503 58.394 43.29 56.6318 43.29 54.8696L39.7692 24.0314ZM46.8107 63.6805C51.2117 63.6805 53.8522 66.3238 53.8522 70.7293C53.8522 74.2536 51.2117 77.778 46.8107 77.778C42.4098 77.778 39.7692 75.1347 39.7692 70.7293C39.7692 66.3238 42.4098 63.6805 46.8107 63.6805Z" fill="white" stroke="white" stroke-miterlimit="10"/>
</svg>
