<svg width="38" height="38" viewBox="0 0 38 38" fill="none" xmlns="http://www.w3.org/2000/svg">
<path d="M10.0313 22.4013C10.193 22.4013 10.3449 22.3011 10.404 22.1403L11.2979 19.6835C11.4579 19.6925 11.6188 19.6983 11.7797 19.6983C12.0087 19.6983 12.2394 19.6884 12.4692 19.6696L13.3434 22.0705C13.4017 22.2314 13.5543 22.3315 13.716 22.3307C13.7612 22.3307 13.8063 22.3233 13.8507 22.3069L17.5378 20.9656C17.6363 20.9295 17.7168 20.8565 17.7611 20.7604C17.8054 20.6652 17.8103 20.5561 17.7742 20.4576L16.8803 18.0041C17.1923 17.7702 17.4886 17.5157 17.7668 17.2415L19.9839 18.5163C20.0463 18.5524 20.1144 18.5688 20.1809 18.5688C20.318 18.5688 20.451 18.4982 20.524 18.371L22.4858 14.9728C22.5383 14.8817 22.5531 14.7733 22.5252 14.6723C22.4981 14.5706 22.4316 14.4844 22.3405 14.4318L20.0791 13.1267C20.1686 12.7475 20.2318 12.3601 20.2679 11.9677L22.7838 11.5253C22.8872 11.5072 22.9791 11.4489 23.039 11.3628C23.0998 11.2766 23.1228 11.1707 23.1047 11.0664L22.4242 7.20279C22.4062 7.09936 22.3479 7.00743 22.2617 6.94669C22.1755 6.88677 22.0688 6.86296 21.9654 6.88102L19.3937 7.33412C19.2189 6.98773 19.0186 6.65037 18.7945 6.32532L20.4362 4.36928C20.5774 4.20183 20.5552 3.95148 20.3878 3.81112L17.3811 1.2887C17.3006 1.2214 17.1964 1.18774 17.0921 1.19759C16.9871 1.20662 16.891 1.25751 16.8229 1.33795L15.1443 3.33832C14.7839 3.18318 14.4138 3.05349 14.037 2.95006V0.396461C14.037 0.17812 13.8597 0 13.6405 0H9.71696C9.49862 0 9.3205 0.177299 9.3205 0.396461V3.00752C8.9462 3.11998 8.57929 3.2587 8.22305 3.42286L6.58139 1.46682C6.51408 1.38638 6.41722 1.33549 6.31215 1.32646C6.20709 1.31743 6.10366 1.35027 6.02322 1.41757L3.01816 3.93999C2.93772 4.00729 2.88683 4.10415 2.8778 4.20922C2.86877 4.31428 2.9016 4.41771 2.96891 4.49815L4.64833 6.49851C4.43327 6.82685 4.24038 7.16913 4.07375 7.52127L1.55873 7.07802C1.34367 7.04026 1.13764 7.18391 1.09988 7.39896L0.418592 11.2626C0.400534 11.366 0.423517 11.4727 0.484259 11.5589C0.544179 11.6451 0.636933 11.7034 0.740358 11.7215L3.31284 12.1746C3.35799 12.5645 3.43104 12.9502 3.52954 13.3278L1.3174 14.6042C1.22629 14.6567 1.16062 14.7438 1.13271 14.8447C1.10481 14.9465 1.11958 15.054 1.17211 15.1451L3.1339 18.5434C3.18643 18.6345 3.27344 18.701 3.3744 18.7281C3.40806 18.7371 3.44253 18.7412 3.47701 18.7412C3.54596 18.7412 3.61491 18.7231 3.67483 18.6878L5.93704 17.3819C6.22186 17.6503 6.52557 17.8982 6.84405 18.1248L5.96987 20.5257C5.89517 20.7309 6.00106 20.9583 6.20627 21.0338L9.89262 22.3758C9.94104 22.3931 9.98619 22.4013 10.0313 22.4013ZM16.7408 11.174C16.7408 13.909 14.5155 16.1342 11.7805 16.1342C9.04552 16.1342 6.82025 13.9098 6.82025 11.174C6.82025 8.43896 9.04552 6.21369 11.7805 6.21369C14.5155 6.21369 16.7408 8.43814 16.7408 11.174Z" fill="white"/>
<path d="M37.5814 23.8156L37.1094 21.1364C37.0914 21.0321 37.0331 20.9402 36.9469 20.8803C36.8607 20.8203 36.754 20.7965 36.6506 20.8146L34.9556 21.1134C34.8563 20.923 34.7454 20.7374 34.6248 20.5569L35.705 19.2698C35.8454 19.1023 35.824 18.852 35.6566 18.7116L33.5717 16.9624C33.4912 16.8951 33.387 16.8615 33.2827 16.8713C33.1785 16.8812 33.0816 16.9313 33.0135 17.0117L31.907 18.3308C31.7067 18.2479 31.5032 18.1765 31.2963 18.1165V16.4379C31.2963 16.2196 31.119 16.0415 30.9007 16.0415H28.1796C27.9605 16.0415 27.7832 16.2188 27.7832 16.4379V18.1584C27.578 18.2241 27.3752 18.3004 27.1774 18.3874L26.098 17.1012C26.0307 17.0207 25.9338 16.9698 25.8288 16.9608C25.7237 16.9518 25.6203 16.9846 25.5398 17.0519L23.4557 18.8011C23.3753 18.8684 23.3252 18.9653 23.3154 19.0703C23.3064 19.1754 23.3392 19.2788 23.4065 19.3593L24.513 20.6783C24.3964 20.8606 24.2905 21.0494 24.1953 21.2431L22.5422 20.9517C22.4387 20.9336 22.332 20.9566 22.2458 21.0173C22.1597 21.0773 22.1006 21.17 22.0833 21.2726L21.6105 23.9526C21.5925 24.0561 21.6163 24.1628 21.6762 24.249C21.7369 24.3351 21.8289 24.3942 21.9323 24.4115L23.6273 24.7094C23.656 24.9237 23.6946 25.1371 23.7463 25.3464L22.2926 26.1861C22.103 26.2953 22.0382 26.5383 22.1473 26.727L23.5075 29.0836C23.56 29.1748 23.647 29.2412 23.748 29.2683C23.7816 29.2774 23.8161 29.2815 23.8506 29.2815C23.9195 29.2815 23.9885 29.2634 24.0484 29.2289L25.5398 28.3671C25.6991 28.5124 25.8665 28.6502 26.0405 28.7775L25.466 30.3559C25.3913 30.5611 25.4971 30.7885 25.7024 30.8632L28.2592 31.794C28.3044 31.8104 28.3495 31.8178 28.3947 31.8178C28.5564 31.8178 28.7082 31.7185 28.7673 31.5568L29.3567 29.9381C29.4404 29.9414 29.5241 29.9439 29.6079 29.9439C29.7392 29.9439 29.8714 29.939 30.0035 29.9307L30.5781 31.5092C30.6364 31.6701 30.789 31.7702 30.9507 31.7702C30.9959 31.7702 31.0419 31.7628 31.0862 31.7464L33.6431 30.8164C33.7416 30.7803 33.822 30.7072 33.8663 30.6112C33.9107 30.516 33.9148 30.4068 33.8795 30.3083L33.2901 28.6905C33.46 28.5591 33.6242 28.418 33.7785 28.2702L35.2363 29.1083C35.2987 29.1444 35.3668 29.1608 35.4341 29.1608C35.5712 29.1608 35.7042 29.0902 35.7772 28.963L37.1373 26.6064C37.1899 26.5153 37.2046 26.4069 37.1767 26.306C37.1497 26.2042 37.0832 26.118 36.9921 26.0655L35.5014 25.2052C35.5482 24.9951 35.5827 24.7817 35.6065 24.5658L37.2605 24.2752C37.3639 24.2572 37.4558 24.1989 37.5157 24.1127C37.5765 24.0257 37.5995 23.9198 37.5814 23.8156ZM32.9273 23.9108C32.9273 25.7404 31.4383 27.2294 29.6087 27.2294C27.7799 27.2294 26.2909 25.7412 26.2909 23.9108C26.2909 22.0811 27.7791 20.593 29.6087 20.593C31.4383 20.593 32.9273 22.0803 32.9273 23.9108Z" fill="white"/>
<path d="M19.287 29.5939C19.2689 29.4904 19.2107 29.3985 19.1245 29.3378C19.0383 29.2778 18.9316 29.254 18.8281 29.2721L17.5723 29.4937C17.5124 29.3821 17.4475 29.2729 17.3777 29.1654L18.1748 28.2149C18.2421 28.1344 18.2749 28.0302 18.2659 27.9259C18.256 27.8209 18.206 27.7248 18.1255 27.6567L16.5044 26.2966C16.4239 26.2293 16.3205 26.1964 16.2154 26.2055C16.1104 26.2153 16.0143 26.2654 15.9462 26.3458L15.127 27.3226C15.0088 27.275 14.8882 27.234 14.7667 27.1962V25.9559C14.7667 25.7376 14.5894 25.5603 14.3702 25.5603H12.2549C12.0366 25.5603 11.8585 25.7376 11.8585 25.9559V27.2307C11.7378 27.2709 11.6188 27.3161 11.5022 27.3653L10.7052 26.4148C10.6379 26.3343 10.541 26.2843 10.436 26.2744C10.3309 26.2646 10.2275 26.2982 10.147 26.3655L8.52755 27.7248C8.44711 27.7921 8.39621 27.889 8.38801 27.9941C8.37898 28.0991 8.41181 28.2026 8.47912 28.2838L9.29831 29.2598C9.231 29.3681 9.16944 29.4798 9.11198 29.5922L7.88976 29.3772C7.78634 29.3591 7.67963 29.3829 7.59344 29.4428C7.50726 29.5036 7.44816 29.5955 7.43092 29.6989L7.06401 31.7822C7.04595 31.8856 7.06975 31.9923 7.12967 32.0785C7.18959 32.1647 7.28235 32.223 7.38577 32.241L8.64082 32.4627C8.6597 32.5891 8.68351 32.7138 8.71141 32.837L7.63695 33.4575C7.44733 33.5667 7.38249 33.8096 7.49166 33.9993L8.54971 35.8314C8.60224 35.9225 8.68925 35.989 8.79021 36.016C8.82387 36.0251 8.85834 36.0292 8.89282 36.0292C8.96177 36.0292 9.03072 36.0111 9.09064 35.9758L10.1955 35.338C10.2907 35.4226 10.3892 35.503 10.4902 35.5794L10.065 36.7458C9.99027 36.951 10.0962 37.1783 10.3014 37.253L12.2894 37.9762C12.3337 37.9926 12.3797 38 12.4248 38C12.5866 38 12.7384 37.9007 12.7975 37.7398L13.2342 36.5405C13.2785 36.5422 13.3237 36.5438 13.368 36.5438C13.4501 36.5438 13.5321 36.5406 13.6151 36.5364L14.0394 37.7028C14.0977 37.8637 14.2504 37.9639 14.4121 37.9639C14.4572 37.9639 14.5024 37.9565 14.5467 37.9392L16.5347 37.2161C16.6332 37.18 16.7137 37.1069 16.758 37.0117C16.8023 36.9165 16.8073 36.8073 16.7711 36.7088L16.3345 35.5104C16.433 35.4316 16.5298 35.3495 16.6218 35.2633L17.6987 35.8831C17.7611 35.9184 17.8292 35.9356 17.8957 35.9356C18.0328 35.9356 18.1657 35.865 18.2396 35.7378L19.2977 33.9057C19.3502 33.8154 19.365 33.7062 19.3371 33.6053C19.31 33.5035 19.2435 33.4173 19.1524 33.3656L18.0484 32.7278C18.0738 32.603 18.0943 32.4774 18.1099 32.351L19.3321 32.136C19.4356 32.1179 19.5275 32.0596 19.5874 31.9735C19.6482 31.8873 19.6711 31.7806 19.6531 31.6771L19.287 29.5939ZM15.8592 31.7658C15.8592 33.1407 14.7412 34.257 13.368 34.257C11.9939 34.257 10.8768 33.1399 10.8768 31.7658C10.8768 30.3925 11.9939 29.2746 13.368 29.2746C14.7421 29.2737 15.8592 30.3917 15.8592 31.7658Z" fill="white"/>
</svg>
